# AST/ASF file generated using VICON BodyLanguage
# -----------------------------------------------
:version 1.10
:name VICON
:units
  mass 1.0
  length 0.45
  angle deg
:documentation
   .ast/.asf automatically generated from VICON data using
   VICON BodyBuilder and BodyLanguage model FoxedUp or BRILLIANT.MOD
:root
   order TX TY TZ RX RY RZ
   axis XYZ
   position 0 0 0  
   orientation 0 0 0 
:bonedata
  begin
     id 1 
     name lhipjoint
     direction 0.714689 -0.624256 0.315473 
     length 2.45343 
     axis 0 0 0  XYZ
  end
  begin
     id 2 
     name lfemur
     direction 0.34202 -0.939693 0  
     length 6.59069  
     axis 0 0 20  XYZ
    dof rx ry rz
    limits (-160.0 20.0)
           (-70.0 70.0)
           (-60.0 70.0)
  end
  begin
     id 3 
     name ltibia
     direction 0.34202 -0.939693 0   
     length 6.73476   
     axis 0 0 20   XYZ
    dof rx
    limits (-10.0 170.0)
  end
  begin
     id 4 
     name lfoot
     direction 0.0718085 -0.197292 0.977711   
     length 1.52607   
     axis -90 7.62852e-016 20   XYZ
    dof rx rz
    limits (-45.0 90.0)
           (-70.0 20.0)
  end
  begin
     id 5 
     name ltoes
     direction 1.53553e-011 -4.22024e-011 1   
     length 0.777832   
     axis -90 7.62852e-016 20   XYZ
    dof rx
    limits (-90.0 20.0)
  end
  begin
     id 6 
     name rhipjoint
     direction -0.727419 -0.612432 0.309497   
     length 2.50079  
     axis 0 0 0  XYZ 
  end
  begin
     id 7 
     name rfemur
     direction -0.34202 -0.939693 0   
     length 6.51665   
     axis 0 0 -20   XYZ
    dof rx ry rz
    limits (-160.0 20.0)
           (-70.0 70.0)
           (-70.0 60.0)
  end
  begin
     id 8 
     name rtibia
     direction -0.34202 -0.939693 0   
     length 6.48919   
     axis 0 0 -20   XYZ
    dof rx
    limits (-10.0 170.0)
 end
 begin
     id 9 
     name rfoot
     direction -0.112205 -0.308282 0.944655   
     length 1.68717  
     axis -90 -7.62852e-016 -20   XYZ
    dof rx rz
    limits (-45.0 90.0)
           (-20.0 70.0)
  end
  begin
     id 10 
     name rtoes
     direction -1.53583e-011 -4.21993e-011 1   
     length 0.846859   
     axis -90 -7.62852e-016 -20   XYZ
    dof rx
    limits (-90.0 20.0)
  end
  begin
     id 11 
     name lowerback
     direction -0.00119603 0.996364 -0.0851956   
     length 1.67242   
     axis 0 0 0   XYZ
    dof rx ry rz
    limits (-20.0 45.0)
           (-30.0 30.0)
           (-30.0 30.0)
  end
  begin
     id 12 
     name upperback
     direction -0.00531001 0.998318 0.0577248   
     length 1.64819   
     axis 0 0 0   XYZ
    dof rx ry rz
    limits (-20.0 45.0)
           (-30.0 30.0)
           (-30.0 30.0)
  end
  begin
     id 13 
     name thorax
     direction -0.00653676 0.995132 0.0983291   
     length 1.67429   
     axis 0 0 0   XYZ
    dof rx ry rz
    limits (-20.0 45.0)
           (-30.0 30.0)
           (-30.0 30.0)
  end
  begin
     id 14 
     name lowerneck
     direction 0.0141424 0.999886 0.00525412   
     length 1.59623   
     axis 0 0 0   XYZ
    dof rx ry rz
    limits (-20.0 45.0)
           (-30.0 30.0)
           (-30.0 30.0)
  end
  begin
     id 15 
     name upperneck
     direction -0.0640064 0.987178 -0.146232   
     length 1.59576   
     axis 0 0 0   XYZ
    dof rx ry rz
    limits (-20.0 45.0)
           (-30.0 30.0)
           (-30.0 30.0)
  end
  begin
     id 16
     name head
     direction -0.0222942 0.998496 -0.0500859  
     length 1.60959  
     axis 0 0 0   XYZ
    dof rx ry rz
    limits (-20.0 45.0)
           (-30.0 30.0)
           (-30.0 30.0)
  end
  begin
     id 17 
     name lclavicle
     direction 0.908549 0.392612 0.142806  
     length 2.80649  
     axis 0 0 0   XYZ
    dof ry rz
    limits (-20.0 10.0)
           (0.0 20.0)
  end
  begin
     id 18 
     name lhumerus
     direction 1 -4.48968e-011 1.08832e-028   
     length 4.2884   
     axis -180 -30 -90   XYZ
    dof rx ry rz
    limits (-60.0 90.0)
           (-90.0 90.0)
           (-90.0 90.0)
  end
  begin
     id 19
     name lradius
     direction 1 -4.48952e-011 -3.02642e-028   
     length 3.06552   
     axis -180 -30 -90   XYZ
    dof rx
    limits (-10.0 170.0)
  end
  begin
     id 20
     name lwrist
     direction 1 -4.49014e-011 1.58672e-027   
     length 1.53276   
     axis -1.65735e-015 90 90   XYZ
    dof ry
    limits (-180.0 0.0)
 end
  begin
     id 21 
     name lhand
     direction 1 -4.48928e-011 3.17344e-027   
     length 0.753045   
     axis -2.02492e-015 90 90   XYZ
    dof rx rz
    limits (-90.0 90.0)
           (-45.0 45.0)
  end
  begin
     id 22 
     name lfingers
     direction 1 -4.48958e-011 6.34687e-027   
     length 0.607124   
     axis -4.04985e-015 90 90   XYZ
    dof rx
    limits (0.0 90.0)
  end
  begin
     id 23
     name lthumb
     direction 0.707107 -6.34905e-011 0.707107   
     length 0.871712   
     axis -90 45 2.85299e-015   XYZ
    dof rx rz
    limits (-45.0 45.0)
           (-45.0 45.0)
  end
  begin
     id 24 
     name rclavicle
     direction -0.885098 0.45949 0.0739604   
     length 2.9478  
     axis 0 0 0   XYZ 
    dof ry rz
    limits (-10.0 20.0)
           (-20.0 0.0)
  end
  begin
     id 25 
     name rhumerus
     direction -1 -4.4898e-011 -2.61739e-027  
     length 4.52172   
     axis -180 30 90   XYZ
    dof rx ry rz
    limits (-90.0 60.0)
           (-90.0 90.0)
           (-90.0 90.0)
  end
  begin
     id 26 
     name rradius
     direction -1 -4.48945e-011 9.02552e-028   
     length 2.8914   
     axis -180 30 90   XYZ
    dof rx
    limits (-10.0 170.0)
  end
  begin
     id 27 
     name rwrist
     direction -1 -4.49018e-011 1.58672e-027   
     length 1.4457   
     axis -1.65735e-015 -90 -90   XYZ
    dof ry
    limits (-180.0 0.0)
  end
  begin
     id 28
     name rhand
     direction -1 -4.48825e-011 3.17344e-027   
     length 0.680541   
     axis -2.02492e-015 -90 -90   XYZ
    dof rx rz
    limits (-90.0 90.0)
           (-45.0 45.0)
  end
  begin
     id 29
     name rfingers
     direction -1 -4.49067e-011 6.34687e-027   
     length 0.54867   
     axis -4.04985e-015 -90 -90   XYZ
    dof rx
    limits (0.0 90.0)
  end
  begin
     id 30
     name rthumb
     direction -0.707107 -6.34833e-011 0.707107   
     length 0.787783   
     axis -90 -45 -2.85299e-015   XYZ
    dof rx rz
    limits (-45.0 45.0)
           (-45.0 45.0)
  end
:hierarchy
  begin
    root lhipjoint rhipjoint lowerback
    lhipjoint lfemur
    lfemur ltibia
    ltibia lfoot
    lfoot ltoes
    rhipjoint rfemur
    rfemur rtibia
    rtibia rfoot
    rfoot rtoes
    lowerback upperback
    upperback thorax
    thorax lowerneck lclavicle rclavicle
    lowerneck upperneck
    upperneck head
    lclavicle lhumerus
    lhumerus lradius
    lradius lwrist
    lwrist lhand lthumb
    lhand lfingers
    rclavicle rhumerus
    rhumerus rradius
    rradius rwrist
    rwrist rhand rthumb
    rhand rfingers
  end

#!OML:ASF E:\emotionWalksFemale\Project 1\Capture day 1\Session 1\Female1.ASF
:FULLY-SPECIFIED
:DEGREES
144
root 8.48261 15.5225 23.1545 -180.384 1.83291 -179.84
lowerback 5.90854 1.38898 0.684793
upperback -4.4959 2.0253 -0.143308
thorax -8.01184 0.992897 -0.798923
lowerneck -8.29557 -1.73295 -5.17222
upperneck 17.1311 -3.07172 4.93815
head 6.72801 -1.65665 2.16338
rclavicle -1.95989e-015 -2.90723e-015
rhumerus -48.4355 19.4959 -101.043
rradius 34.9958
rwrist 22.3456
rhand -0.02454 -51.0006
rfingers 7.12502
rthumb -154.433 -259.305
lclavicle -1.95989e-015 -2.90723e-015
lhumerus -44.8358 -10.177 94.7032
lradius 35.9951
lwrist -10.2854
lhand -2.66265 -37.974
lfingers 7.12502
lthumb 23.0377 -9.33097
rfemur 1.20617 16.3652 26.8854
rtibia 14.8526
rfoot -16.4898 -29.3291
rtoes 3.37452
lfemur -4.03233 -19.9742 -25.58
ltibia 20.884
lfoot -21.1703 19.0813
ltoes -18.461
145
root 8.48203 15.5209 23.1552 -180.404 1.82867 -179.801
lowerback 5.9459 1.36859 0.739847
upperback -4.497 2.00353 -0.13711
thorax -8.03364 0.978933 -0.821642
lowerneck -8.29492 -1.72439 -5.15763
upperneck 17.116 -3.05408 4.90612
head 6.72147 -1.64914 2.15212
rclavicle -1.24551e-015 -6.4605e-016
rhumerus -48.4292 19.4492 -101.038
rradius 34.9307
rwrist 22.383
rhand -0.117943 -50.8525
rfingers 7.12502
rthumb -154.523 -259.169
lclavicle -1.24551e-015 -6.4605e-016
lhumerus -44.8843 -10.1607 94.711
lradius 36.0076
lwrist -10.3018
lhand -2.90134 -38.3324
lfingers 7.12502
lthumb 22.8087 -9.66096
rfemur 1.25589 16.2886 26.9238
rtibia 14.7978
rfoot -16.43 -29.2709
rtoes 3.23437
lfemur -4.03622 -19.9316 -25.5363
ltibia 20.9284
lfoot -21.2019 19.0334
ltoes -17.8067
146
root 8.4821 15.5221 23.1569 -180.374 1.84706 -179.776
lowerback 5.96355 1.35678 0.742315
upperback -4.52986 1.99145 -0.121195
thorax -8.08013 0.973689 -0.806081
lowerneck -8.27564 -1.70428 -5.13749
upperneck 17.1355 -3.03076 4.88726
head 6.72245 -1.63972 2.14475
rclavicle -2.97649e-014 -3.27995e-015
rhumerus -48.5268 19.5124 -101.144
rradius 34.9158
rwrist 21.8808
rhand -1.05758 -50.7322
rfingers 7.12502
rthumb -155.423 -259.175
lclavicle -2.97649e-014 -3.27995e-015
lhumerus -44.9852 -10.1786 94.7353
lradius 36.0509
lwrist -10.2961
lhand -2.87904 -38.4318
lfingers 7.12502
lthumb 22.83 -9.76293
rfemur 1.22784 16.2032 26.9259
rtibia 14.7466
rfoot -16.3211 -29.2248
rtoes 2.76189
lfemur -4.10719 -19.9297 -25.4892
ltibia 20.9796
lfoot -21.2317 19.024
ltoes -17.5428
147
root 8.48323 15.5236 23.1579 -180.352 1.84257 -179.782
lowerback 5.93367 1.35031 0.713539
upperback -4.51579 1.97963 -0.11361
thorax -8.04886 0.969888 -0.779254
lowerneck -8.3081 -1.68593 -5.19944
upperneck 17.1442 -3.01012 4.97469
head 6.7318 -1.62607 2.18491
rclavicle 2.74944e-014 1.09332e-015
rhumerus -48.5536 19.5481 -101.206
rradius 34.9224
rwrist 21.5629
rhand -1.81014 -50.7399
rfingers 7.12502
rthumb -156.145 -259.278
lclavicle 2.74944e-014 1.09332e-015
lhumerus -44.9259 -10.2272 94.7651
lradius 36.0064
lwrist -10.2176
lhand -2.75148 -38.3482
lfingers 7.12502
lthumb 22.9525 -9.69455
rfemur 1.2156 16.1944 26.9159
rtibia 14.7103
rfoot -16.3325 -29.2114
rtoes 2.73971
lfemur -4.15687 -19.916 -25.4801
ltibia 21.0189
lfoot -21.2657 18.961
ltoes -17.8474
148
root 8.48325 15.5226 23.1567 -180.399 1.84078 -179.774
lowerback 5.92616 1.35132 0.70437
upperback -4.47041 1.97841 -0.0920912
thorax -7.9966 0.969866 -0.750043
lowerneck -8.3583 -1.69375 -5.2287
upperneck 17.1111 -3.00487 4.96886
head 6.73025 -1.62237 2.18812
rclavicle 4.88265e-015 7.95139e-016
rhumerus -48.3534 19.3572 -100.952
rradius 34.8662
rwrist 22.4464
rhand -0.459266 -50.8803
rfingers 7.12502
rthumb -154.85 -259.243
lclavicle 4.88265e-015 7.95139e-016
lhumerus -44.8464 -10.1532 94.7694
lradius 35.9645
lwrist -10.3138
lhand -2.68145 -38.3927
lfingers 7.12502
lthumb 23.0197 -9.74739
rfemur 1.30365 16.1947 26.9454
rtibia 14.6676
rfoot -16.352 -29.1939
rtoes 2.92509
lfemur -4.11325 -19.9087 -25.4942
ltibia 21.0536
lfoot -21.2552 19.033
ltoes -18.1829
